<svg width="38" height="22" viewBox="0 0 38 22" fill="none" xmlns="http://www.w3.org/2000/svg">
<rect width="38" height="22" rx="11" fill="#3772E7"/>
<path d="M18.487 15H12.624V14.168C13.4127 13.5007 14.093 12.9113 14.665 12.4C15.2457 11.8887 15.7223 11.4207 16.095 10.996C16.4763 10.5627 16.758 10.151 16.94 9.761C17.1307 9.371 17.226 8.968 17.226 8.552C17.226 8.006 17.0743 7.56833 16.771 7.239C16.4677 6.901 16.017 6.732 15.419 6.732C14.925 6.732 14.4787 6.836 14.08 7.044C13.6813 7.24333 13.2913 7.53367 12.91 7.915V6.914C13.2133 6.602 13.5773 6.34633 14.002 6.147C14.4267 5.94767 14.9423 5.848 15.549 5.848C15.991 5.848 16.3897 5.913 16.745 6.043C17.1003 6.16433 17.3993 6.33767 17.642 6.563C17.8933 6.78833 18.084 7.06133 18.214 7.382C18.344 7.70267 18.409 8.058 18.409 8.448C18.409 8.97667 18.305 9.47067 18.097 9.93C17.8977 10.3893 17.6073 10.8443 17.226 11.295C16.8447 11.737 16.3853 12.1877 15.848 12.647C15.3107 13.1063 14.7083 13.596 14.041 14.116H18.487V15ZM21.6314 15H20.3964L24.2184 6.94H19.6294V5.965H25.4664V6.797L21.6314 15Z" fill="white"/>
</svg>
